G75*
%MOIN*%
%OFA0B0*%
%FSLAX24Y24*%
%IPPOS*%
%LPD*%
%AMOC8*
5,1,8,0,0,1.08239X$1,22.5*
%
%ADD10R,0.0394X0.0591*%
%ADD11R,0.0276X0.0591*%
%ADD12R,0.0591X0.1102*%
%ADD13C,0.0600*%
%ADD14OC8,0.0520*%
%ADD15C,0.0100*%
%ADD16C,0.0400*%
D10*
X014100Y015100D03*
X015084Y015100D03*
X016069Y015100D03*
X017053Y015100D03*
X018037Y015100D03*
X019021Y015100D03*
X020006Y015100D03*
X020960Y015100D03*
X021630Y015100D03*
D11*
X022141Y015100D03*
X022614Y015100D03*
D12*
X012410Y005927D03*
X013276Y014391D03*
X023158Y014391D03*
X023158Y005927D03*
D13*
X022180Y017210D02*
X021580Y017210D01*
X021580Y018990D02*
X022180Y018990D01*
X022180Y020710D02*
X021580Y020710D01*
X021580Y022490D02*
X022180Y022490D01*
X019620Y022490D02*
X019020Y022490D01*
X019020Y020710D02*
X019620Y020710D01*
X019620Y018990D02*
X019020Y018990D01*
X019020Y017210D02*
X019620Y017210D01*
X016680Y017210D02*
X016080Y017210D01*
X016080Y018990D02*
X016680Y018990D01*
X016680Y020710D02*
X016080Y020710D01*
X016080Y022490D02*
X016680Y022490D01*
X014120Y022490D02*
X013520Y022490D01*
X013520Y020710D02*
X014120Y020710D01*
X014120Y018990D02*
X013520Y018990D01*
X013520Y017210D02*
X014120Y017210D01*
X014100Y026800D02*
X014100Y027400D01*
X015100Y027400D02*
X015100Y026800D01*
X016100Y026800D02*
X016100Y027400D01*
X017100Y027400D02*
X017100Y026800D01*
X018100Y026800D02*
X018100Y027400D01*
X019100Y027400D02*
X019100Y026800D01*
D14*
X020600Y025100D03*
X020600Y024100D03*
D15*
X016975Y024100D01*
X015100Y022225D01*
X018725Y018475D02*
X019225Y018975D01*
X019320Y018990D01*
X018725Y018475D02*
X016225Y018475D01*
X014850Y017100D01*
X015100Y016475D02*
X013600Y016475D01*
X012975Y017100D01*
X012975Y026350D01*
X014350Y026350D01*
X015100Y027100D01*
X013820Y017210D02*
X013850Y017100D01*
X014225Y016725D01*
X018725Y016725D01*
X018475Y016475D01*
X018600Y016475D01*
X019975Y015100D01*
X020006Y015100D01*
X020100Y014600D02*
X019600Y014600D01*
X019100Y015100D01*
X019021Y015100D01*
X018600Y015600D02*
X018100Y015100D01*
X018037Y015100D01*
X017100Y015100D02*
X017053Y015100D01*
X017100Y015100D02*
X018475Y016475D01*
X018725Y016725D02*
X019100Y017100D01*
X019225Y017100D01*
X019320Y017210D01*
X020850Y015100D02*
X020960Y015100D01*
X020850Y015100D02*
X020850Y010850D01*
X021100Y010850D01*
X021100Y008100D01*
X019100Y008100D01*
X020350Y010350D02*
X020100Y012100D01*
X020100Y014600D01*
X017975Y014225D02*
X016975Y014225D01*
X016100Y015100D01*
X016069Y015100D01*
X015850Y015725D02*
X015100Y016475D01*
X015100Y015100D02*
X015084Y015100D01*
X015100Y015100D02*
X015100Y014725D01*
X017100Y010725D01*
X017975Y010850D02*
X017975Y014225D01*
D16*
X018600Y015600D03*
X015850Y015725D03*
X014850Y017100D03*
X015100Y022225D03*
X017975Y010850D03*
X017100Y010725D03*
X020350Y010350D03*
X019100Y008100D03*
M02*
