%
M48
M72
T01C0.0240
T02C0.0320
T03C0.0400
T04C0.0591
T05C0.0827
%
T01
X17100Y10725
X17975Y10850
X20350Y10350
X19100Y8100
X18600Y15600
X15850Y15725
X14850Y17100
X15100Y22225
T02
X20600Y24100
X20600Y25100
T03
X19100Y27100
X18100Y27100
X17100Y27100
X16100Y27100
X15100Y27100
X14100Y27100
X13820Y22490
X13820Y20710
X13820Y18990
X13820Y17210
X16380Y17210
X16380Y18990
X16380Y20710
X16380Y22490
X19320Y22490
X19320Y20710
X19320Y18990
X19320Y17210
X21880Y17210
X21880Y18990
X21880Y20710
X21880Y22490
T04
X22368Y13998
T05
X14100Y13998
M30
