G75*
%MOIN*%
%OFA0B0*%
%FSLAX24Y24*%
%IPPOS*%
%LPD*%
%AMOC8*
5,1,8,0,0,1.08239X$1,22.5*
%
%ADD10R,0.0433X0.0394*%
%ADD11C,0.0217*%
%ADD12R,0.0500X0.0217*%
%ADD13R,0.0217X0.0500*%
%ADD14C,0.0600*%
%ADD15OC8,0.0520*%
%ADD16R,0.0394X0.0433*%
%ADD17C,0.0100*%
%ADD18C,0.0400*%
%ADD19C,0.0120*%
D10*
X017765Y023600D03*
X018435Y023600D03*
X018435Y025100D03*
X017765Y025100D03*
X014935Y025100D03*
X014265Y025100D03*
D11*
X015768Y011702D02*
X016052Y011702D01*
X015768Y011702D02*
X015768Y011702D01*
X016052Y011702D01*
X016052Y011702D01*
D12*
X015910Y011387D03*
X015910Y011072D03*
X015910Y010757D03*
X015910Y010443D03*
X015910Y010128D03*
X015910Y009813D03*
X015910Y009498D03*
X019290Y009498D03*
X019290Y009813D03*
X019290Y010128D03*
X019290Y010443D03*
X019290Y010757D03*
X019290Y011072D03*
X019290Y011387D03*
X019290Y011702D03*
D13*
X018702Y012290D03*
X018387Y012290D03*
X018072Y012290D03*
X017757Y012290D03*
X017443Y012290D03*
X017128Y012290D03*
X016813Y012290D03*
X016498Y012290D03*
X016498Y008910D03*
X016813Y008910D03*
X017128Y008910D03*
X017443Y008910D03*
X017757Y008910D03*
X018072Y008910D03*
X018387Y008910D03*
X018702Y008910D03*
D14*
X019020Y017210D02*
X019620Y017210D01*
X019620Y018990D02*
X019020Y018990D01*
X019020Y020710D02*
X019620Y020710D01*
X019620Y022490D02*
X019020Y022490D01*
X016680Y022490D02*
X016080Y022490D01*
X016080Y020710D02*
X016680Y020710D01*
X016680Y018990D02*
X016080Y018990D01*
X016080Y017210D02*
X016680Y017210D01*
X014120Y017210D02*
X013520Y017210D01*
X013520Y018990D02*
X014120Y018990D01*
X014120Y020710D02*
X013520Y020710D01*
X013520Y022490D02*
X014120Y022490D01*
X014100Y026800D02*
X014100Y027400D01*
X015100Y027400D02*
X015100Y026800D01*
X016100Y026800D02*
X016100Y027400D01*
X017100Y027400D02*
X017100Y026800D01*
X018100Y026800D02*
X018100Y027400D01*
X019100Y027400D02*
X019100Y026800D01*
X021580Y022490D02*
X022180Y022490D01*
X022180Y020710D02*
X021580Y020710D01*
X021580Y018990D02*
X022180Y018990D01*
X022180Y017210D02*
X021580Y017210D01*
D15*
X020600Y024100D03*
X020600Y025100D03*
D16*
X016935Y025100D03*
X016265Y025100D03*
D17*
X012725Y021475D02*
X012725Y008475D01*
X016725Y008475D01*
X016850Y008600D01*
X016850Y008850D01*
X016813Y008910D01*
X017100Y008850D02*
X017128Y008910D01*
X017100Y008850D02*
X017100Y008600D01*
X017225Y008475D01*
X018100Y008475D01*
X018100Y007600D01*
X020100Y007600D01*
X020350Y007975D01*
X021600Y007975D01*
X021600Y015600D01*
X020600Y015600D01*
X020600Y016100D01*
X020350Y022475D01*
X019350Y022475D01*
X019320Y022490D01*
X018475Y021475D02*
X018475Y023600D01*
X018435Y023600D01*
X018475Y023600D02*
X018475Y025100D01*
X018435Y025100D01*
X018475Y025100D02*
X019100Y025100D01*
X019100Y027100D01*
X017100Y027100D02*
X017100Y025100D01*
X016935Y025100D01*
X017100Y025100D02*
X017765Y025100D01*
X017850Y025100D01*
X017850Y023600D01*
X017765Y023600D01*
X017850Y023600D02*
X017850Y017725D01*
X018975Y016600D01*
X018975Y015600D01*
X018600Y015600D01*
X018975Y015600D02*
X018975Y011975D01*
X018850Y011850D01*
X018850Y011600D01*
X018850Y009850D01*
X019225Y009850D01*
X019290Y009813D01*
X019290Y009498D02*
X019350Y009475D01*
X019850Y009475D01*
X020350Y010350D01*
X019725Y010725D02*
X019725Y016725D01*
X019350Y017100D01*
X019320Y017210D01*
X019225Y017225D01*
X018475Y017975D01*
X018475Y019850D01*
X019225Y020600D01*
X019320Y020710D01*
X019225Y020725D01*
X018475Y021475D01*
X017475Y023225D02*
X016350Y024350D01*
X016350Y025100D01*
X016265Y025100D01*
X014935Y025100D01*
X014265Y025100D02*
X014225Y025100D01*
X014100Y025225D01*
X014100Y027100D01*
X013600Y027600D02*
X013850Y027850D01*
X016100Y027850D01*
X016100Y027100D01*
X013600Y027600D02*
X013600Y025100D01*
X015475Y023225D01*
X015475Y017100D01*
X017100Y015475D01*
X017100Y012350D01*
X017128Y012290D01*
X016850Y012350D02*
X016813Y012290D01*
X016850Y012350D02*
X016850Y014725D01*
X015850Y015725D01*
X015225Y016225D02*
X014850Y016600D01*
X014850Y017100D01*
X015225Y016975D02*
X015225Y022100D01*
X015100Y022225D01*
X013820Y022490D02*
X013725Y022475D01*
X012725Y021475D01*
X013820Y020710D02*
X013850Y020600D01*
X014600Y019850D01*
X014600Y017975D01*
X013850Y017225D01*
X013820Y017210D01*
X013850Y017100D01*
X014975Y015975D01*
X014975Y010975D01*
X015475Y010975D01*
X015600Y011100D01*
X015850Y011100D01*
X015910Y011072D01*
X015850Y011350D02*
X015910Y011387D01*
X015850Y011350D02*
X015225Y011350D01*
X015225Y016225D01*
X015475Y016725D02*
X015225Y016975D01*
X015475Y016725D02*
X015475Y013350D01*
X016475Y012350D01*
X016498Y012290D01*
X017443Y012290D02*
X017475Y012350D01*
X017475Y023225D01*
X019100Y025100D02*
X020600Y025100D01*
X013820Y018990D02*
X013725Y018975D01*
X012975Y018225D01*
X012975Y008975D01*
X016475Y008975D01*
X016498Y008910D01*
X016350Y010100D02*
X016100Y010100D01*
X015975Y010100D01*
X015910Y010128D01*
X015910Y010443D02*
X015850Y010475D01*
X015475Y010475D01*
X015475Y010975D01*
X015910Y010757D02*
X015975Y010725D01*
X016225Y010725D01*
X016350Y010600D01*
X016350Y010100D01*
X017100Y010725D02*
X018100Y009725D01*
X018100Y008975D01*
X018072Y008910D01*
X018350Y008975D02*
X018387Y008910D01*
X018350Y008975D02*
X018350Y010225D01*
X017975Y010850D01*
X019290Y010757D02*
X019350Y010725D01*
X019725Y010725D01*
X019100Y008975D02*
X018725Y008975D01*
X018702Y008910D01*
X019100Y008975D02*
X019100Y008100D01*
D18*
X019100Y008100D03*
X020350Y010350D03*
X017975Y010850D03*
X017100Y010725D03*
X018600Y015600D03*
X015850Y015725D03*
X014850Y017100D03*
X015100Y022225D03*
D19*
X016600Y011600D02*
X018850Y011600D01*
X016600Y011600D02*
X016600Y010100D01*
X016100Y010100D01*
M02*
